 <svg  version="1.0" xmlns="http://www.w3.org/2000/svg"  width="227.000000pt" height="227.000000pt" viewBox="0 0 227.000000 227.000000"  preserveAspectRatio="xMidYMid meet">  <g transform="translate(0.000000,227.000000) scale(0.100000,-0.100000)" fill="#c21414" stroke="none"> <path d="M985 2176 c-336 -53 -629 -272 -776 -581 -115 -243 -137 -488 -64 -740 86 -297 303 -547 583 -670 155 -68 214 -79 422 -79 159 0 196 3 262 21 300 84 540 278 674 545 202 402 123 891 -195 1209 -237 238 -572 346 -906 295z m351 -21 c103 -20 161 -39 264 -88 92 -44 117 -59 200 -126 164 -132 292 -330 348 -541 28 -107 38 -309 21 -415 -66 -404 -363 -731 -761 -838 -72 -19 -107 -22 -263 -21 -166 1 -187 3 -269 28 -104 31 -229 89 -306 141 -30 21 -98 81 -150 134 -198 200 -293 431 -293 716 0 290 101 528 313 735 141 139 312 231 500 270 108 23 292 25 396 5z"/> <path d="M1050 2149 c-198 -18 -413 -111 -554 -239 -126 -113 -202 -215 -264 -350 -70 -153 -104 -366 -82 -523 13 -100 44 -228 63 -261 6 -12 12 -23 12 -26 1 -3 7 -18 13 -33 7 -16 12 -30 12 -32 0 -10 90 -141 130 -189 52 -63 187 -186 204 -186 5 0 17 -6 25 -14 34 -29 168 -94 231 -112 268 -76 509 -60 739 48 289 135 496 399 567 723 14 63 13 300 -2 375 -37 194 -125 366 -260 509 -67 70 -181 161 -203 161 -6 0 -11 4 -11 8 0 9 -65 44 -90 48 -8 2 -16 8 -18 13 -2 6 -10 11 -17 11 -8 0 -53 13 -102 29 -78 26 -141 36 -278 45 -22 1 -74 -1 -115 -5z m300 -34 c304 -64 556 -257 688 -528 84 -171 106 -282 100 -482 -4 -113 -10 -157 -32 -230 -123 -414 -471 -692 -903 -720 -267 -18 -548 89 -744 284 -181 181 -280 398 -296 646 -39 648 552 1161 1187 1030z"/> <path d="M1564 1995 c-10 -8 -14 -15 -8 -15 5 0 15 5 22 12 9 9 15 9 24 0 7 -7 16 -12 22 -12 10 0 -24 29 -35 30 -3 0 -14 -7 -25 -15z"/> <path d="M1640 1973 c0 -5 10 -13 23 -18 12 -6 21 -17 19 -24 -1 -7 2 -10 8 -6 5 3 13 0 16 -9 3 -9 12 -12 21 -9 10 4 14 2 10 -4 -4 -6 6 -16 22 -23 16 -6 31 -21 34 -32 3 -11 10 -17 17 -13 6 3 10 3 9 -2 -1 -4 -1 -15 0 -23 1 -13 2 -13 11 0 8 12 10 12 15 -2 4 -9 19 -24 33 -34 28 -18 26 -15 -43 61 -49 53 -195 156 -195 138z"/> <path d="M1295 1950 c-3 -5 -1 -10 4 -10 6 0 11 5 11 10 0 6 -2 10 -4 10 -3 0 -8 -4 -11 -10z"/> <path d="M1024 1920 c-139 -20 -309 -107 -419 -215 -104 -103 -157 -190 -205 -341 -34 -104 -39 -293 -11 -403 69 -275 272 -486 551 -572 62 -20 97 -24 205 -24 136 0 196 11 295 51 300 122 490 400 493 719 2 215 -62 384 -203 538 -95 104 -249 197 -385 232 -74 19 -239 27 -321 15z m76 -19 c-8 -6 -30 -9 -50 -9 -174 2 -439 -172 -549 -361 -24 -40 -41 -74 -39 -77 3 -2 14 14 26 35 l22 39 38 -37 c35 -35 36 -36 14 -39 -13 -2 -26 -10 -29 -18 -5 -12 -10 -11 -29 7 l-24 22 -9 -24 c-9 -21 -10 -22 -11 -4 0 12 -6 5 -15 -20 -8 -21 -12 -41 -10 -43 2 -2 6 6 10 17 3 12 11 19 16 16 11 -7 -12 -45 -27 -45 -7 0 -15 -17 -20 -37 -5 -25 -9 -32 -12 -19 -2 10 8 52 23 93 89 251 294 433 560 499 61 15 137 18 115 5z m226 -7 c261 -60 476 -258 559 -512 9 -29 15 -55 13 -58 -3 -2 -10 15 -17 38 -7 24 -27 72 -43 108 l-31 65 -7 -33 c-18 -80 -88 -106 -134 -51 -31 36 -36 14 -6 -24 11 -14 20 -28 20 -31 0 -3 -27 -6 -60 -6 -47 0 -60 3 -60 15 0 8 4 15 9 15 9 0 34 60 27 67 -2 2 -13 -12 -24 -32 -28 -46 -67 -48 -111 -4 -41 40 -43 94 -5 138 14 17 33 31 43 31 11 0 22 15 31 42 17 48 72 90 93 69 8 -8 5 -11 -11 -11 -33 0 -72 -43 -72 -80 0 -23 -5 -30 -19 -30 -26 0 -68 -35 -75 -65 -9 -36 18 -93 49 -105 31 -12 61 1 70 29 3 10 15 27 27 37 l21 19 -7 -49 c-3 -27 -11 -55 -17 -62 -9 -11 -3 -14 31 -14 42 0 43 1 26 19 -21 23 -34 101 -18 101 6 0 21 -18 33 -40 25 -45 40 -53 72 -41 28 11 41 27 54 67 12 34 3 60 -29 82 -10 7 -18 19 -18 26 0 7 -11 23 -25 36 -14 13 -25 20 -25 15 0 -5 -13 4 -30 20 -16 15 -28 32 -27 37 1 6 -7 15 -18 21 -11 7 -36 24 -55 38 -30 23 -93 59 -102 59 -2 0 -2 -19 0 -42 6 -77 -61 -146 -147 -151 -22 -1 -41 -3 -41 -5 0 -1 18 -25 40 -53 44 -56 55 -97 46 -174 -4 -40 -3 -56 7 -62 29 -17 47 -58 38 -88 -6 -24 -3 -36 15 -61 46 -60 84 -194 84 -294 l0 -48 73 -12 c138 -22 243 -47 236 -55 -3 -2 -59 7 -124 20 -66 14 -131 25 -145 25 -41 0 -50 13 -56 81 -13 143 -57 266 -111 309 -26 20 -31 35 -8 27 8 -4 17 -2 20 3 4 6 1 10 -4 10 -6 0 -11 5 -11 11 0 5 5 7 11 3 7 -4 10 -2 8 5 -3 7 -8 12 -12 11 -11 -1 -32 21 -40 43 -4 10 -2 41 4 69 14 62 1 113 -40 161 -52 60 -91 127 -84 143 4 12 2 15 -8 12 -14 -5 -58 55 -59 80 0 24 19 12 22 -14 2 -15 12 -32 22 -38 11 -6 27 -19 37 -28 16 -15 21 -16 46 -3 32 17 59 19 67 6 7 -11 -17 -21 -50 -21 -13 0 -24 -4 -24 -9 0 -5 -3 -17 -7 -27 -11 -28 87 -14 132 20 42 32 45 53 9 62 -19 5 -22 9 -12 15 8 5 8 9 2 9 -15 0 -39 -29 -30 -37 3 -3 6 -1 6 6 0 7 9 6 26 -6 25 -16 25 -17 8 -30 -26 -19 -33 -17 -51 22 -9 19 -20 32 -25 29 -12 -8 -10 10 4 24 6 6 9 14 5 18 -3 3 -14 -7 -24 -23 -10 -16 -22 -29 -28 -27 -5 1 -32 5 -58 9 -47 6 -49 8 -42 33 3 15 19 40 35 56 l28 28 43 -30 c24 -17 51 -39 60 -49 11 -14 25 -18 56 -15 37 4 40 6 39 32 -1 23 -7 30 -28 34 -15 3 -36 3 -45 0 -15 -5 -16 -4 -3 5 13 11 13 12 0 10 -8 -1 -22 1 -30 5 -8 3 -44 13 -80 20 -45 10 -55 15 -33 15 17 1 62 -6 99 -15z m-126 -9 c11 -13 10 -14 -6 -9 -10 4 -16 4 -12 -1 10 -10 -10 -47 -22 -40 -4 3 -10 0 -12 -6 -3 -9 -17 -9 -54 1 -28 7 -62 10 -77 6 -37 -9 -87 -75 -153 -206 -53 -104 -59 -120 -58 -175 1 -61 14 -93 79 -183 23 -32 23 -35 9 -58 -9 -13 -22 -43 -29 -66 -9 -28 -14 -35 -14 -20 -1 15 -7 22 -22 22 -14 0 -19 -5 -17 -17 2 -10 10 -17 17 -15 7 1 10 -2 6 -8 -3 -6 -10 -8 -15 -5 -4 2 -18 -4 -31 -14 -13 -10 -30 -16 -36 -14 -14 5 -30 -24 -19 -34 3 -3 12 -1 20 6 11 9 14 7 14 -15 0 -18 -4 -22 -11 -15 -17 17 -27 13 -27 -10 0 -18 4 -20 27 -14 16 4 25 3 21 -1 -11 -11 12 -34 33 -34 11 0 19 6 19 13 0 8 7 14 15 14 15 0 19 -14 16 -49 -1 -10 2 -18 7 -18 6 0 15 -13 21 -30 8 -26 7 -30 -7 -31 -13 0 -12 -2 4 -9 12 -5 33 -29 47 -54 l26 -46 -25 0 c-19 0 -24 5 -24 26 0 36 -17 64 -39 64 -10 0 -24 7 -31 15 -18 21 -96 20 -108 -2 -7 -11 -45 -23 -123 -39 -62 -13 -115 -21 -117 -19 -5 4 53 20 128 35 30 6 65 13 78 16 12 2 22 11 22 18 0 8 7 17 16 20 25 10 92 7 99 -4 10 -17 45 -12 39 5 -4 8 -18 15 -33 15 -36 0 -87 33 -112 72 -15 25 -19 43 -15 76 5 40 4 42 -19 42 -14 0 -25 -2 -25 -4 0 -2 -3 -12 -7 -21 -5 -15 -3 -16 15 -6 19 10 22 9 22 -9 0 -11 -4 -20 -10 -20 -16 0 -12 -26 7 -41 9 -8 22 -29 30 -47 13 -32 13 -35 -13 -59 -17 -15 -42 -26 -63 -28 -20 -2 -51 -6 -68 -9 -23 -4 -33 -2 -33 6 0 8 -5 5 -11 -4 -11 -19 -49 -25 -49 -7 0 5 4 7 10 4 5 -3 7 0 4 8 -3 8 6 27 19 43 13 16 22 35 20 42 -3 6 0 12 5 12 6 0 8 19 5 45 -2 24 0 51 4 60 8 13 14 11 41 -13 18 -16 29 -32 24 -37 -4 -4 -2 -6 3 -3 6 4 28 -11 49 -33 55 -53 59 -40 5 16 -24 26 -43 51 -41 56 1 6 -1 8 -6 5 -13 -8 -35 11 -27 24 6 9 9 9 15 0 5 -8 10 -2 15 18 7 33 33 50 41 27 3 -7 12 -11 19 -9 7 3 16 0 20 -6 4 -7 20 2 45 24 21 18 51 37 67 40 20 5 33 17 43 39 7 18 15 34 17 37 6 10 -75 109 -82 102 -5 -4 -5 -2 -2 4 3 6 -1 30 -9 54 -21 60 -7 116 61 247 89 170 141 221 212 210 22 -4 33 -2 33 7 0 35 75 51 100 21z m-238 -42 c-31 -22 -76 -89 -91 -135 -11 -35 -31 -52 -31 -28 0 6 5 10 10 10 16 0 12 18 -10 38 -11 10 -23 33 -26 50 -6 30 -5 32 22 32 22 0 26 3 14 10 -8 5 -10 10 -5 11 40 4 53 7 70 17 11 6 31 11 45 11 l25 0 -23 -16z m430 -16 c12 -19 9 -30 -5 -18 -8 6 -16 9 -19 6 -3 -3 -13 4 -23 14 -17 20 -17 20 11 15 16 -3 32 -11 36 -17z m-291 -20 c19 -12 57 -59 85 -102 28 -44 65 -96 83 -116 17 -20 37 -49 46 -65 25 -49 17 -131 -20 -204 -7 -14 -16 -42 -20 -63 -4 -20 -11 -40 -16 -43 -5 -3 -14 -15 -20 -27 -6 -12 2 -6 18 13 15 19 29 38 29 42 1 5 2 13 3 19 0 6 19 -2 41 -18 29 -20 38 -33 35 -48 -3 -11 -2 -14 1 -7 3 6 9 12 13 12 12 0 42 -59 36 -70 -3 -6 -2 -10 4 -10 10 0 21 -27 27 -65 2 -11 9 -45 15 -75 9 -48 9 -56 -7 -67 -24 -18 -29 -16 -31 9 -1 11 -6 24 -11 27 -5 3 -13 17 -17 30 -7 21 -9 19 -26 -29 -23 -65 -35 -80 -65 -80 -20 0 -23 6 -26 43 l-3 42 -48 3 c-32 2 -48 -1 -51 -10 -25 -84 -26 -86 -22 -33 2 28 -2 64 -9 82 -11 27 -11 34 1 44 8 7 12 20 8 35 -4 16 -2 24 7 24 11 0 11 2 2 8 -7 4 -10 17 -6 30 5 19 8 20 21 10 9 -7 13 -8 9 -2 -4 6 2 19 13 29 11 10 20 24 20 30 0 7 7 18 15 25 8 7 15 17 15 23 0 6 -11 0 -25 -13 -29 -27 -34 -17 -7 15 9 12 2 5 -16 -14 -18 -19 -37 -52 -44 -73 -16 -54 -50 -52 -114 5 -27 24 -59 49 -71 56 -13 6 -23 16 -23 21 0 20 42 9 68 -18 15 -16 39 -36 54 -45 25 -15 28 -15 59 6 18 12 42 40 54 62 16 32 26 40 47 40 15 0 34 9 42 20 22 29 19 44 -4 17 -20 -25 -43 -22 -34 3 4 8 10 12 15 9 5 -3 9 -1 9 5 0 5 8 8 19 6 15 -3 20 6 29 48 12 60 11 61 -63 77 -144 32 -283 22 -322 -23 -15 -17 -15 -19 -2 -15 12 5 15 1 13 -17 -1 -13 -5 -29 -9 -34 -10 -18 42 -63 65 -56 14 5 29 -2 51 -24 39 -40 54 -39 92 4 17 19 36 35 43 35 6 0 22 9 35 19 l24 19 -55 -3 c-43 -3 -48 -2 -23 4 18 5 44 16 57 25 l25 16 -2 -39 c-3 -45 -66 -143 -104 -160 -22 -10 -25 -9 -20 4 5 10 0 15 -15 15 -17 0 -18 -2 -8 -15 22 -27 -11 -17 -79 22 -69 41 -107 96 -97 138 8 33 -15 49 -48 34 -27 -12 -35 -29 -15 -29 7 0 18 8 25 18 18 24 40 3 25 -25 -7 -14 -7 -23 1 -31 15 -15 4 -26 -18 -18 -9 3 -14 13 -11 20 3 8 -1 17 -9 20 -24 9 -16 -17 22 -69 20 -28 40 -60 45 -72 5 -13 15 -23 22 -23 8 0 39 -22 70 -49 31 -27 62 -51 69 -54 10 -4 10 -8 -2 -16 -12 -8 -12 -11 -1 -11 8 0 11 -7 8 -20 -3 -10 0 -21 5 -22 19 -7 43 -92 38 -133 -3 -26 -8 -36 -13 -27 -6 8 -27 12 -62 11 -43 -2 -52 -5 -48 -18 3 -9 -7 -4 -21 12 -23 25 -46 82 -46 117 0 8 -5 22 -11 30 -13 19 -2 -49 17 -102 10 -29 10 -38 1 -39 -7 0 -2 -4 10 -9 12 -5 29 -24 36 -43 8 -18 26 -52 41 -75 l26 -42 -25 -6 c-16 -4 -25 -13 -25 -26 0 -17 -3 -18 -15 -8 -8 7 -15 21 -15 31 0 11 -16 43 -35 72 -51 77 -76 150 -82 246 -6 82 -6 84 15 78 12 -3 22 -1 22 4 0 5 -7 9 -16 9 -13 0 -15 7 -10 32 3 18 10 36 15 41 11 11 97 -38 105 -60 4 -9 9 -14 11 -11 12 12 -10 39 -50 62 -30 18 -47 37 -58 65 -9 22 -21 42 -27 46 -6 3 -22 30 -37 58 -43 84 -37 130 32 265 51 99 148 232 130 177 -4 -11 -8 -25 -9 -32 -1 -7 -6 -16 -10 -20 -4 -4 -14 -23 -21 -40 -8 -18 -19 -33 -24 -33 -6 0 -11 -5 -11 -11 0 -6 -6 -17 -14 -24 -8 -8 -28 -49 -46 -91 -25 -61 -30 -81 -21 -98 9 -19 10 -18 9 9 -1 31 26 96 62 150 11 17 23 37 27 45 4 8 19 36 34 61 15 25 30 60 34 78 8 39 37 41 86 8z m421 -18 c17 -9 19 -17 14 -51 -9 -57 -33 -111 -47 -103 -11 8 -34 -13 -63 -57 -18 -28 -16 -89 4 -113 5 -7 7 -15 3 -18 -3 -4 0 -7 7 -7 24 0 79 -49 77 -69 0 -11 -4 -18 -8 -16 -3 3 -25 -14 -49 -38 -37 -36 -41 -39 -35 -17 9 31 44 70 62 70 17 0 16 10 -4 32 -23 26 -33 22 -33 -11 0 -16 -7 -35 -16 -42 -14 -11 -18 -10 -30 6 -15 20 -3 45 22 45 8 0 14 7 14 15 0 19 -16 20 -23 1 -3 -7 -14 -15 -24 -18 -18 -5 -19 0 -16 57 3 35 0 66 -5 69 -14 9 9 55 31 62 9 3 17 10 17 15 0 17 -21 9 -43 -15 l-21 -24 -23 24 c-28 31 -29 44 -3 44 26 0 101 38 117 59 7 9 16 27 19 41 4 14 16 33 28 43 16 13 17 16 4 11 -10 -3 -18 -1 -18 5 0 14 16 14 42 0z m-721 -19 c1 -5 2 -15 3 -20 0 -6 8 -15 16 -20 15 -10 22 -90 8 -90 -5 0 -8 -7 -8 -15 0 -8 -3 -15 -8 -15 -7 0 -24 -44 -39 -100 -7 -24 -7 -66 -1 -131 2 -17 12 -37 22 -45 11 -8 14 -14 8 -14 -7 0 -12 -5 -12 -11 0 -6 6 -9 14 -6 8 3 13 -1 12 -11 0 -9 4 -16 11 -15 6 1 17 -4 23 -12 8 -9 8 -15 2 -15 -6 0 -13 6 -15 13 -3 6 -6 2 -6 -10 -1 -16 3 -21 14 -17 21 8 8 -25 -18 -48 -29 -26 -34 -23 -41 32 -6 47 -17 62 -30 41 -4 -5 -1 -11 6 -13 6 -2 12 -23 13 -46 1 -30 -2 -41 -11 -38 -7 3 -14 -5 -17 -16 -3 -11 -10 -17 -15 -14 -6 3 -12 1 -14 -5 -8 -23 -48 1 -49 29 -2 23 -2 23 -6 5 -5 -27 -28 -47 -43 -38 -8 5 -6 12 5 25 9 10 13 24 9 35 -6 14 -3 16 14 10 12 -3 22 -2 22 3 0 13 -31 20 -54 12 -16 -5 -17 -7 -2 -19 15 -12 15 -16 1 -30 -8 -10 -13 -28 -10 -40 5 -29 -9 -59 -20 -42 -5 9 -12 8 -26 -5 -21 -19 -26 -6 -6 15 10 11 9 14 -1 18 -9 4 -10 8 -2 18 8 9 8 15 0 20 -5 3 -10 -1 -10 -9 0 -9 -3 -16 -6 -16 -10 0 -49 54 -46 64 3 10 -39 42 -51 38 -5 -1 -6 1 -3 6 2 4 1 14 -5 22 -6 11 -9 8 -9 -13 0 -16 -4 -26 -9 -23 -12 8 -21 -19 -20 -57 1 -30 1 -31 8 -7 6 18 10 4 15 -53 7 -68 10 -77 24 -71 10 4 29 9 45 12 15 2 27 9 27 14 0 5 -14 39 -32 74 -26 53 -35 63 -51 58 -13 -4 -17 -2 -13 5 23 36 71 -22 106 -129 18 -55 20 -70 10 -102 -6 -21 -15 -38 -21 -38 -6 0 -7 -4 -4 -10 3 -6 -1 -7 -9 -4 -9 3 -16 1 -16 -5 0 -12 -31 -3 -43 13 -5 6 -5 0 -1 -13 10 -37 34 -91 39 -91 3 0 -2 16 -10 36 -19 47 -19 52 3 28 12 -12 18 -31 16 -53 -3 -40 58 -140 125 -206 54 -52 53 -33 -1 24 -24 25 -34 38 -22 28 23 -19 40 -22 48 -8 3 5 0 8 -7 7 -6 0 -13 4 -15 9 -1 6 9 11 23 13 26 3 26 3 24 -59 -3 -61 -2 -62 35 -90 21 -15 44 -25 52 -22 8 3 14 -1 14 -11 0 -9 2 -16 4 -16 2 0 12 -3 22 -7 11 -4 15 -3 10 5 -3 6 2 15 11 21 17 9 17 10 -2 16 -56 18 -67 26 -61 42 4 9 2 19 -4 23 -7 4 -5 12 6 21 10 8 15 9 11 3 -3 -6 -2 -24 3 -40 8 -28 8 -28 10 11 7 132 5 157 -12 166 -24 13 -26 89 -3 89 18 0 20 -16 3 -23 -7 -3 -2 -6 11 -6 18 -1 22 3 17 16 -4 10 -4 14 0 10 4 -4 8 -69 9 -143 0 -144 -2 -137 52 -170 15 -10 16 -14 4 -25 -8 -8 -11 -9 -7 -2 3 6 2 14 -4 18 -5 3 -10 1 -10 -4 0 -6 -6 -11 -13 -11 -8 0 -14 -7 -14 -16 0 -19 63 -48 156 -71 36 -9 60 -18 54 -20 -20 -7 -182 46 -224 73 -21 13 -41 24 -45 24 -21 0 -169 141 -217 206 -108 150 -168 381 -139 539 8 40 10 44 12 20 2 -26 4 -23 15 20 9 35 13 42 14 23 1 -16 11 -35 26 -46 13 -11 21 -23 17 -27 -4 -4 3 -4 16 -1 19 6 22 4 22 -18 0 -16 6 -26 14 -26 8 0 21 -3 30 -6 9 -3 16 -2 16 4 0 5 -9 12 -20 15 -25 6 -27 37 -2 38 9 0 26 2 37 4 10 2 25 -1 32 -7 10 -8 13 -6 13 5 0 16 26 47 39 47 5 0 11 -14 15 -31 5 -27 8 -30 21 -19 8 7 15 19 15 27 0 13 -3 13 -15 3 -13 -11 -15 -8 -15 13 0 54 39 41 40 -13 1 -22 2 -23 11 -7 5 9 7 22 4 28 -9 13 14 41 28 32 6 -3 7 -1 3 6 -4 6 -11 9 -16 6 -4 -3 -10 5 -14 18 -3 12 -1 24 4 25 13 5 13 32 0 32 -5 0 -10 10 -10 23 0 12 -7 35 -15 51 -8 15 -13 32 -10 36 3 5 -14 28 -39 52 -69 69 -61 95 59 181 53 39 64 43 66 27z m539 -80 c-8 -5 -24 -9 -35 -9 -20 0 -20 0 0 9 11 5 27 9 35 9 13 1 13 0 0 -9z m300 -17 c21 -18 28 -32 24 -45 -3 -10 -1 -18 5 -18 13 0 -6 -55 -25 -71 -24 -20 -29 0 -6 24 30 32 29 50 -2 36 -52 -24 -90 38 -49 83 20 23 18 23 53 -9z m70 -38 c0 -7 6 -15 12 -17 7 -3 3 -7 -9 -10 -19 -5 -21 -2 -21 23 1 27 18 32 18 4z m-1090 -13 c0 -14 -2 -14 -9 -3 -11 17 -35 -89 -28 -125 4 -21 0 -20 -28 13 -18 21 -31 40 -28 43 3 3 13 -5 23 -17 17 -22 17 -22 24 34 7 58 21 87 37 77 5 -3 9 -13 9 -22z m24 -45 c13 -12 38 -48 55 -79 34 -61 41 -89 16 -64 -8 8 -15 19 -15 24 0 4 -13 7 -29 4 -32 -4 -30 -10 -33 91 -1 15 -5 27 -9 27 -5 0 -9 -4 -9 -8 0 -5 -7 -17 -15 -28 -13 -17 -14 -16 -5 16 6 19 10 36 10 37 0 8 11 1 34 -20z m900 -2 c-4 -8 -11 -12 -16 -9 -6 4 -5 10 3 15 19 12 19 11 13 -6z m66 -32 c0 -21 -17 -15 -34 12 -9 13 -16 27 -16 30 0 12 49 -30 50 -42z m102 21 c-24 -17 -39 -14 -27 5 3 6 16 11 28 11 l21 0 -22 -16z m52 -38 c-7 -39 -27 -66 -48 -66 -7 0 -22 13 -34 30 l-22 30 32 13 c18 8 39 22 47 31 21 25 34 5 25 -38z m-231 18 c26 -9 47 -19 47 -23 0 -11 -55 -61 -66 -61 -19 0 -45 37 -49 69 -5 36 2 38 68 15z m-903 -39 c0 -8 -4 -15 -10 -15 -5 0 -10 7 -10 15 0 8 5 15 10 15 6 0 10 -7 10 -15z m400 -32 c0 -14 2 -14 21 3 17 15 23 16 41 5 17 -11 22 -10 29 1 7 10 14 6 33 -17 13 -16 28 -27 32 -22 4 4 2 7 -4 7 -7 0 -12 7 -12 16 0 14 3 14 15 4 12 -10 15 -10 15 0 0 10 3 10 15 0 8 -7 15 -16 15 -20 0 -7 -56 -26 -95 -33 -11 -2 -19 -9 -17 -16 2 -8 -3 -9 -16 -2 -11 6 -24 6 -35 0 -11 -7 -17 -7 -17 0 0 5 -12 12 -27 14 -16 2 -1 5 32 6 33 2 71 7 85 11 19 7 14 8 -20 5 -128 -12 -174 -13 -150 -5 24 8 24 8 3 9 -17 1 -21 5 -16 18 4 11 8 12 11 5 5 -17 22 -15 22 4 0 8 5 12 10 9 6 -3 10 -1 10 4 0 6 5 11 10 11 6 0 10 -7 10 -17z m775 -40 c-15 -13 -30 -21 -33 -18 -8 8 35 45 43 37 4 -4 4 4 1 18 -6 23 -6 23 5 6 10 -17 8 -23 -16 -43z m-505 5 c0 -5 -10 -13 -22 -18 -19 -7 -20 -9 -5 -9 23 -1 17 -25 -6 -29 -14 -3 -17 5 -17 42 0 45 0 45 25 34 14 -6 25 -15 25 -20z m-622 6 c12 -4 29 -19 37 -34 12 -24 12 -31 -3 -61 -34 -67 -166 -120 -230 -93 -90 37 -16 149 123 184 40 10 46 11 73 4z m-185 -19 c-3 -9 -8 -14 -10 -11 -3 3 -2 9 2 15 9 16 15 13 8 -4z m1360 -24 c7 -26 -1 -33 -25 -20 -21 12 -48 6 -48 -11 0 -5 8 -10 18 -10 26 0 33 -10 21 -31 -8 -16 -6 -21 13 -28 l22 -8 -22 -14 c-29 -18 -28 -25 8 -38 26 -9 30 -8 30 9 0 10 5 22 10 25 6 4 10 -8 10 -29 l0 -35 -47 14 c-54 16 -103 63 -103 98 0 32 27 67 64 83 41 18 43 17 49 -5z m-868 -2 c-3 -4 5 -14 18 -22 20 -13 26 -13 42 -1 24 18 49 18 64 0 7 -9 25 -13 44 -12 18 2 22 1 10 -1 -13 -2 -23 -8 -23 -14 0 -18 -35 -49 -56 -49 -13 0 -33 13 -46 30 -13 17 -39 34 -58 40 -32 9 -33 8 -16 -5 11 -8 15 -15 9 -15 -5 0 -18 9 -28 20 -16 18 -14 25 8 21 4 0 7 3 7 7 0 5 7 9 15 9 8 0 12 -4 10 -8z m758 -1 c2 -7 -2 -28 -10 -46 -10 -23 -11 -38 -3 -52 7 -13 7 -21 -1 -26 -6 -3 -9 -19 -5 -35 3 -15 1 -31 -4 -34 -6 -3 -10 2 -10 12 0 11 -3 14 -8 6 -4 -6 -23 -13 -42 -17 -19 -3 -36 -10 -38 -15 -6 -18 -30 -12 -46 11 -9 12 -16 18 -16 14 0 -5 7 -18 17 -28 13 -15 14 -22 5 -41 -11 -19 -17 -78 -13 -114 0 -6 8 -19 18 -28 14 -14 14 -18 2 -26 -11 -7 -11 -9 4 -9 9 0 17 -7 17 -15 0 -8 5 -15 12 -15 6 0 9 -3 5 -6 -3 -4 1 -20 9 -35 13 -27 13 -30 -2 -36 -9 -3 -30 -1 -46 5 -16 6 -35 9 -43 6 -9 -4 -16 10 -24 48 -12 58 -25 169 -23 181 1 4 -2 7 -7 7 -5 0 -13 10 -16 23 -9 32 -39 91 -47 95 -27 12 23 77 88 115 8 4 14 19 14 32 0 27 15 34 23 11 4 -10 25 -16 64 -18 l58 -4 -32 -13 c-23 -9 -33 -19 -32 -34 0 -22 0 -22 9 1 6 12 18 22 30 22 11 0 20 4 20 10 0 5 6 7 13 5 15 -6 44 11 34 21 -3 4 -13 1 -22 -6 -20 -17 -19 -5 2 20 20 23 39 26 46 8z m131 -108 c-4 -12 -8 -9 -19 9 -10 19 -10 29 -1 43 10 17 12 16 18 -9 5 -16 5 -35 2 -43z m-931 -20 c-5 -6 -42 41 -43 55 0 6 11 -3 24 -20 13 -16 22 -32 19 -35z m394 42 c13 -8 7 -52 -7 -52 -15 0 -32 30 -26 45 6 17 15 19 33 7z m582 -168 c1 -92 -3 -127 -24 -198 -49 -168 -129 -292 -262 -401 -67 -55 -183 -119 -238 -130 -16 -3 -1 7 35 23 90 40 130 62 181 102 87 68 173 168 209 245 8 17 16 35 19 40 3 6 -3 4 -12 -4 -15 -12 -15 -8 3 33 11 26 20 49 20 51 0 7 -48 -9 -109 -36 -35 -16 -65 -29 -66 -29 -1 0 -8 19 -14 43 -7 23 -29 74 -48 113 -32 66 -34 75 -23 112 15 58 53 85 108 79 47 -5 92 -39 92 -68 0 -16 3 -17 31 -5 37 16 79 9 79 -12 0 -12 -3 -13 -12 -4 -18 18 -52 14 -82 -9 l-26 -20 0 23 c0 35 -26 66 -66 77 -95 26 -149 -75 -90 -167 13 -20 32 -61 43 -90 10 -29 22 -50 28 -48 69 32 134 56 149 56 18 0 18 -10 0 -67 -5 -15 -4 -16 5 -3 6 8 21 47 33 85 19 60 23 93 23 224 0 85 3 142 6 125 4 -16 7 -79 8 -140z m-172 105 c-3 -13 -1 -19 6 -16 7 2 24 -2 38 -9 15 -7 30 -10 34 -6 5 4 6 0 2 -9 -4 -12 -1 -16 12 -12 13 3 21 -3 28 -24 10 -27 9 -28 -28 -31 -23 -1 -39 2 -39 8 0 15 -22 36 -46 44 -14 4 -19 14 -18 33 1 37 3 43 10 43 4 0 4 -9 1 -21z m-581 -18 c-3 -5 -22 -18 -42 -30 -19 -12 -33 -17 -30 -12 3 5 -8 11 -24 15 -17 3 -30 11 -30 18 0 9 3 9 12 0 17 -17 70 -15 94 3 22 17 27 18 20 6z m31 -36 c-10 -7 -17 -18 -18 -26 0 -9 -2 -10 -5 -2 -8 17 15 55 28 47 7 -5 6 -11 -5 -19z m702 -32 c0 -35 -1 -36 -10 -14 -5 14 -7 31 -5 38 10 24 16 13 15 -24z m-215 -16 c11 11 37 12 30 1 -3 -5 2 -8 12 -6 11 2 18 -2 17 -9 -2 -7 2 -13 7 -13 6 0 10 -11 10 -24 0 -35 15 -40 56 -21 21 10 43 13 52 9 9 -4 20 -6 25 -6 9 3 9 1 -8 -76 -12 -51 -20 -68 -33 -68 -35 -1 -83 -13 -95 -23 -7 -5 -25 -12 -39 -15 -26 -4 -35 4 -39 39 -1 6 -8 19 -15 30 -8 11 -14 26 -14 34 0 7 -10 22 -22 32 -53 46 38 34 109 -15 68 -47 93 -59 93 -46 0 6 -8 14 -17 17 -10 4 -24 15 -31 24 -7 10 -19 16 -26 13 -7 -3 -16 2 -19 10 -3 8 -22 18 -41 22 -20 3 -36 10 -36 14 0 5 -9 6 -20 3 -15 -4 -20 0 -20 16 0 30 32 72 46 60 6 -5 14 -6 18 -2z m-1219 -49 c14 -36 12 -48 -11 -48 -10 0 -14 12 -14 40 0 48 7 50 25 8z m675 -19 c0 -19 -5 -29 -15 -29 -15 0 -22 50 -9 63 12 12 24 -4 24 -34z m-595 21 c3 -5 2 -10 -4 -10 -5 0 -13 5 -16 10 -3 6 -2 10 4 10 5 0 13 -4 16 -10z m315 -55 c0 -41 -2 -45 -23 -45 -38 0 -64 74 -29 83 47 12 52 9 52 -38z m540 -141 c0 -24 -4 -44 -10 -44 -5 0 -10 23 -10 51 0 31 4 48 10 44 6 -3 10 -26 10 -51z m-133 -4 c1 -31 -1 -40 -7 -30 -8 13 -10 12 -10 -2 0 -9 5 -20 10 -23 6 -3 10 -11 10 -17 0 -6 -7 -5 -17 3 -15 13 -15 12 -3 -11 8 -14 15 -35 16 -48 2 -20 1 -21 -13 -7 -10 11 -19 13 -27 6 -9 -7 -16 -7 -24 1 -9 9 -12 9 -12 0 0 -7 5 -12 11 -12 6 0 9 -6 6 -14 -3 -7 0 -19 6 -25 8 -8 5 -11 -11 -11 -19 0 -22 5 -22 40 0 40 0 40 35 37 32 -4 49 7 25 15 -19 6 -18 77 2 95 10 9 18 21 18 27 0 6 -5 3 -11 -6 -5 -10 -15 -18 -21 -18 -7 0 -6 5 2 15 10 13 9 15 -9 15 -14 0 -20 -4 -15 -11 3 -6 7 -35 8 -65 2 -48 0 -54 -18 -54 -11 0 -17 3 -14 6 4 3 2 19 -2 35 -6 20 -5 29 3 29 7 0 8 3 1 10 -6 6 -8 24 -6 41 4 28 7 30 46 27 l41 -3 2 -45z m203 -31 c0 -34 -53 -91 -76 -82 -16 6 -19 23 -3 23 5 0 8 3 5 8 -9 14 23 45 42 40 11 -3 19 0 19 8 0 7 -4 11 -9 8 -10 -6 -11 10 -1 19 14 15 23 6 23 -24z m-350 5 c0 -8 -4 -12 -10 -9 -5 3 -10 2 -10 -4 0 -5 4 -12 8 -15 5 -3 10 -27 11 -53 1 -40 -2 -49 -16 -50 -27 -2 -73 68 -73 111 0 36 0 36 45 36 34 0 45 -4 45 -16z m696 -29 c-6 -15 -73 -18 -82 -3 -3 4 2 5 10 2 9 -3 16 -2 16 4 0 13 54 32 58 20 2 -5 1 -15 -2 -23z m-1013 8 c-13 -2 -33 -2 -45 0 -13 2 -3 4 22 4 25 0 35 -2 23 -4z m367 -43 c0 -42 -3 -50 -19 -50 -15 0 -19 8 -20 50 0 44 2 50 19 50 17 0 20 -7 20 -50z m219 34 c10 -9 -34 -56 -65 -69 -20 -8 -38 -15 -40 -15 -2 0 -4 22 -4 49 l0 49 53 -5 c28 -3 54 -7 56 -9z m-659 -48 c0 -29 -4 -34 -29 -39 -16 -4 -30 -14 -33 -25 -4 -13 -21 -23 -54 -31 -46 -12 -50 -11 -66 9 -19 23 -24 42 -10 38 13 -4 163 35 168 44 3 5 -5 7 -18 4 -12 -3 -56 -12 -97 -21 -69 -15 -94 -14 -77 2 3 4 53 17 109 29 56 12 103 23 105 23 1 1 2 -14 2 -33z m158 11 c2 -10 -3 -26 -11 -35 -8 -9 -14 -32 -14 -49 0 -33 11 -44 20 -20 3 6 5 -1 5 -18 0 -16 -2 -24 -5 -17 -2 6 -20 12 -39 12 -36 0 -36 0 -36 70 1 86 -2 81 39 78 27 -2 39 -8 41 -21z m782 -2 c69 -14 126 -25 127 -25 1 0 -10 -20 -25 -45 -17 -29 -32 -43 -42 -40 -25 7 -181 34 -240 41 -53 6 -85 27 -72 48 3 5 9 1 12 -10 6 -17 10 -14 30 19 27 45 37 46 210 12z m-279 -35 c25 -14 25 -56 -1 -72 -12 -8 -20 -24 -20 -40 0 -16 -4 -28 -10 -28 -5 0 -10 14 -10 32 0 24 -3 29 -12 20 -6 -6 -11 -28 -10 -48 1 -20 -1 -34 -5 -30 -4 3 -18 -4 -32 -16 -14 -13 -20 -15 -12 -6 12 17 8 38 -8 38 -4 0 -13 -11 -19 -25 -10 -23 -9 -25 16 -31 15 -3 33 -7 40 -10 8 -2 18 9 24 26 5 17 15 30 22 30 6 0 17 9 24 21 10 16 16 18 27 9 7 -6 11 -20 8 -31 -4 -13 -9 -17 -15 -11 -17 17 -47 1 -53 -29 -7 -32 -19 -35 -77 -18 -40 10 -44 18 -28 49 7 13 6 27 -1 44 -9 20 -9 29 1 41 10 12 10 15 -5 15 -32 0 83 68 133 79 2 1 12 -4 23 -9z m-145 -26 c-3 -9 -6 -18 -6 -20 0 -2 -4 -4 -9 -4 -5 0 -7 9 -4 20 3 11 10 20 15 20 6 0 7 -7 4 -16z m-488 -48 c0 -24 3 -49 7 -56 5 -8 3 -11 -6 -8 -8 3 -13 15 -11 26 2 12 -1 22 -6 22 -14 0 -23 -43 -11 -51 8 -5 8 -8 1 -13 -11 -7 -9 -46 4 -81 6 -18 5 -19 -9 -5 -18 16 -25 68 -13 88 4 7 3 12 -3 12 -7 0 -7 8 -1 25 7 18 6 25 -3 25 -8 0 -9 2 -1 8 7 4 8 15 3 27 -4 11 -9 18 -10 15 -1 -4 -5 -64 -8 -143 -1 -16 -5 -26 -9 -23 -7 4 -8 39 -3 159 1 13 10 17 41 17 l39 0 -1 -44z m222 20 c0 -13 6 -29 14 -35 8 -6 16 -20 19 -31 4 -14 1 -17 -12 -13 -11 4 -8 -3 9 -21 17 -19 25 -40 26 -69 3 -105 29 -138 89 -113 24 10 35 22 35 35 0 12 5 21 10 21 13 0 13 -3 -2 -34 -6 -14 -20 -28 -30 -32 -28 -9 -15 -16 16 -8 14 3 23 10 21 15 -3 5 2 20 11 34 15 24 16 28 2 42 -12 12 -14 22 -6 50 8 29 5 41 -18 81 -15 26 -35 57 -46 68 -18 20 -18 22 -2 28 10 4 20 3 23 -2 3 -4 23 -16 44 -26 28 -13 38 -23 34 -35 -2 -10 2 -26 9 -36 11 -15 11 -22 -1 -46 -17 -32 -17 -32 52 -52 47 -14 54 -14 68 -1 8 9 15 23 15 32 0 14 2 15 9 3 8 -12 16 -13 50 -2 l42 12 -18 31 c-10 16 -29 39 -42 49 -17 14 -20 19 -8 19 15 0 77 -79 77 -98 0 -13 -87 -45 -100 -37 -5 3 -10 1 -10 -4 0 -6 6 -11 13 -11 21 0 106 31 112 41 3 5 -12 36 -34 69 -22 33 -36 60 -31 60 5 0 7 6 4 13 -3 10 5 13 33 11 62 -5 247 -35 261 -43 11 -6 -22 -44 -111 -127 -27 -24 -104 -63 -112 -56 -4 4 -5 2 -2 -4 6 -11 -57 -41 -153 -71 -41 -13 -90 -17 -190 -17 -124 0 -142 2 -223 30 -75 26 -86 32 -73 43 13 11 24 8 69 -14 39 -20 62 -26 81 -21 33 8 34 34 1 46 -23 9 -25 14 -25 80 0 67 -1 71 -26 80 -14 6 -30 8 -35 4 -5 -3 -9 13 -9 35 0 40 7 47 53 50 12 1 17 -6 17 -23z m133 -28 c36 -48 57 -94 57 -123 0 -27 -36 -115 -46 -115 -4 0 -4 27 -2 59 2 33 1 58 -4 55 -4 -3 -8 -29 -8 -57 0 -37 -3 -48 -10 -37 -5 8 -10 32 -10 53 0 47 -16 48 -23 1 -4 -24 -1 -44 10 -60 10 -15 11 -24 4 -24 -19 0 -33 52 -28 99 3 26 -1 53 -9 70 -20 37 -18 88 4 100 28 17 40 13 65 -21z m-253 -45 c0 -15 -8 -27 -22 -33 l-23 -9 23 0 c17 -1 22 -7 22 -26 0 -20 -5 -25 -25 -25 -24 0 -25 3 -25 59 0 56 1 59 25 59 20 0 25 -6 25 -25z m100 -13 c0 -5 -16 -10 -35 -10 -19 0 -35 -5 -35 -11 0 -6 7 -8 16 -5 11 4 18 -1 21 -14 3 -11 10 -20 15 -20 6 0 8 7 5 15 -4 8 -2 17 2 20 5 2 11 -4 14 -15 3 -10 1 -20 -5 -22 -6 -2 -5 -13 1 -30 13 -34 -5 -51 -51 -46 l-33 3 0 72 0 73 43 0 c23 0 42 -4 42 -10z m35 -151 c11 -17 -1 -21 -37 -14 -29 7 -30 9 -13 16 29 11 43 11 50 -2z m362 -75 c-3 -3 -12 -4 -19 -1 -8 3 -5 6 6 6 11 1 17 -2 13 -5z m-44 -11 c-7 -2 -19 -2 -25 0 -7 3 -2 5 12 5 14 0 19 -2 13 -5z m-210 -10 c-13 -2 -33 -2 -45 0 -13 2 -3 4 22 4 25 0 35 -2 23 -4z m155 0 c-10 -2 -26 -2 -35 0 -10 3 -2 5 17 5 19 0 27 -2 18 -5z"/> <path d="M1212 1820 c-6 -10 -8 -21 -3 -24 5 -3 11 4 14 16 8 29 4 32 -11 8z"/> <path d="M1260 1830 c0 -5 7 -10 16 -10 8 0 12 5 9 10 -3 6 -10 10 -16 10 -5 0 -9 -4 -9 -10z"/> <path d="M1120 1873 c0 -5 11 -13 24 -19 19 -9 26 -9 30 1 2 7 -5 16 -17 19 -29 8 -37 7 -37 -1z"/> <path d="M818 949 c-24 -13 -23 -29 1 -29 10 0 21 9 24 20 6 22 0 24 -25 9z"/> <path d="M552 890 c0 -14 2 -19 5 -12 2 6 2 18 0 25 -3 6 -5 1 -5 -13z"/> <path d="M1152 1646 c7 -8 15 -12 17 -11 5 6 -10 25 -20 25 -5 0 -4 -6 3 -14z"/> <path d="M1104 1619 c-5 -8 -3 -9 6 -4 7 4 16 2 22 -6 8 -12 9 -12 6 0 -6 20 -24 25 -34 10z"/> <path d="M1055 1580 c-3 -5 -1 -10 4 -10 6 0 11 5 11 10 0 6 -2 10 -4 10 -3 0 -8 -4 -11 -10z"/> <path d="M1069 1553 c-13 -16 -12 -17 4 -4 9 7 17 15 17 17 0 8 -8 3 -21 -13z"/> <path d="M1078 1273 c-16 -2 -28 -8 -28 -13 0 -7 47 1 85 15 13 4 -22 3 -57 -2z"/> <path d="M1275 1137 c-11 -8 -33 -17 -50 -21 -46 -12 -58 -46 -32 -95 12 -25 57 -40 57 -19 0 6 3 9 6 5 4 -3 18 0 33 7 14 7 34 12 44 11 9 -2 17 3 17 10 0 8 6 18 13 22 17 11 15 45 -5 65 -25 25 -60 31 -83 15z m53 -14 c-10 -2 -18 -13 -18 -23 0 -10 -4 -22 -10 -25 -13 -8 -13 -25 -1 -25 9 0 27 38 24 51 -1 3 5 6 13 6 8 0 14 -10 14 -22 0 -17 -11 -27 -47 -42 -27 -11 -60 -23 -75 -27 -25 -6 -28 -3 -28 18 0 13 -3 31 -6 39 -4 11 10 20 53 35 32 11 67 20 78 20 17 0 17 -1 3 -5z"/> <path d="M1250 1095 c-18 -10 -20 -14 -8 -15 23 0 48 11 48 21 0 12 -11 11 -40 -6z"/> <path d="M1210 1060 c0 -5 5 -10 11 -10 5 0 7 5 4 10 -3 6 -8 10 -11 10 -2 0 -4 -4 -4 -10z"/> <path d="M1246 1055 c-4 -11 2 -15 21 -15 21 0 24 2 13 15 -7 8 -16 15 -20 15 -4 0 -10 -7 -14 -15z"/> <path d="M1056 1053 c-6 -14 -5 -15 5 -6 7 7 10 15 7 18 -3 3 -9 -2 -12 -12z"/> <path d="M913 910 c2 -13 9 -26 16 -28 10 -3 10 0 1 19 -18 34 -21 36 -17 9z"/> <path d="M946 857 c3 -10 9 -15 12 -12 3 3 0 11 -7 18 -10 9 -11 8 -5 -6z"/> <path d="M770 1286 c0 -2 7 -7 16 -10 8 -3 12 -2 9 4 -6 10 -25 14 -25 6z"/> <path d="M640 1242 c0 -12 19 -26 26 -19 2 2 -2 10 -11 17 -9 8 -15 8 -15 2z"/> <path d="M485 1002 c-15 -21 -15 -24 -2 -13 20 16 21 5 2 -29 l-13 -25 -11 28 c-6 16 -11 33 -11 38 0 5 -5 9 -10 9 -10 0 -4 -63 7 -82 8 -14 40 -8 56 10 17 18 24 92 10 92 -5 0 -17 -13 -28 -28z"/> <path d="M412 990 c0 -14 2 -19 5 -12 2 6 2 18 0 25 -3 6 -5 1 -5 -13z"/> <path d="M633 1418 c3 -8 -4 -13 -19 -13 -13 0 -24 5 -24 10 0 6 -4 4 -9 -4 -5 -7 -21 -15 -36 -17 -16 -1 -40 -15 -54 -30 -19 -19 -21 -25 -8 -21 9 4 17 2 17 -4 0 -6 -9 -13 -20 -16 -31 -8 -24 -20 9 -15 16 2 32 -1 36 -8 5 -8 2 -10 -11 -6 -11 3 -26 1 -34 -4 -13 -9 -13 -11 0 -20 23 -15 38 -12 62 12 20 20 23 21 26 5 2 -9 8 -17 13 -17 6 0 7 5 4 11 -4 6 1 17 11 24 16 12 21 12 30 0 9 -12 16 -9 45 14 41 35 31 54 -12 22 -17 -13 -33 -21 -35 -18 -7 7 56 57 72 57 8 0 14 4 14 10 0 6 -9 6 -25 0 -14 -5 -27 -5 -30 0 -3 5 4 11 15 15 27 8 16 25 -17 25 -16 0 -23 -5 -20 -12z m-19 -55 c-5 -17 -5 -17 9 0 8 9 20 17 28 17 18 -1 -23 -34 -75 -61 -44 -24 -62 -15 -52 25 6 24 22 31 73 35 17 1 21 -3 17 -16z"/> <path d="M565 1360 c-3 -5 -1 -10 4 -10 6 0 11 5 11 10 0 6 -2 10 -4 10 -3 0 -8 -4 -11 -10z"/> <path d="M1760 1334 c0 -11 5 -14 16 -10 9 3 20 6 25 6 5 0 9 5 9 10 0 6 -11 10 -25 10 -16 0 -25 -6 -25 -16z"/> <path d="M1760 1303 c0 -13 29 -38 35 -31 3 3 -4 13 -15 23 -11 10 -20 13 -20 8z"/> <path d="M1040 1360 c-6 -4 8 -7 31 -8 23 -1 40 1 37 4 -9 9 -55 12 -68 4z"/> <path d="M1660 1310 l-25 -6 25 -7 c26 -7 34 -4 29 11 -2 4 -15 5 -29 2z"/> <path d="M1613 1271 c1 -11 6 -17 14 -14 10 4 11 9 2 19 -15 19 -18 18 -16 -5z"/> <path d="M1676 1251 c-19 -21 -12 -28 13 -12 7 5 12 14 9 21 -2 7 -10 4 -22 -9z"/> <path d="M1618 1223 c6 -2 18 -2 25 0 6 3 1 5 -13 5 -14 0 -19 -2 -12 -5z"/> <path d="M1871 1038 c-1 -37 -11 -59 -24 -51 -6 3 -7 1 -3 -5 4 -7 11 -12 16 -12 11 0 24 64 17 82 -3 7 -6 1 -6 -14z"/> <path d="M1417 829 c-4 -16 -2 -17 14 -8 23 12 23 15 5 22 -8 3 -16 -2 -19 -14z"/> <path d="M1041 854 c0 -11 3 -14 6 -6 3 7 2 16 -1 19 -3 4 -6 -2 -5 -13z"/> <path d="M1070 863 c1 -16 30 -46 37 -38 5 4 2 10 -4 12 -7 3 -13 11 -13 19 0 8 -4 14 -10 14 -5 0 -10 -3 -10 -7z"/> <path d="M1064 810 c1 -25 3 -27 15 -15 12 12 12 16 -1 29 -13 13 -15 11 -14 -14z"/> <path d="M1101 794 c0 -11 3 -14 6 -6 3 7 2 16 -1 19 -3 4 -6 -2 -5 -13z"/> <path d="M1080 770 c0 -6 7 -10 15 -10 8 0 15 2 15 4 0 2 -7 6 -15 10 -8 3 -15 1 -15 -4z"/> <path d="M1292 810 c0 -16 4 -30 9 -30 5 0 9 14 9 30 0 17 -4 30 -8 30 -5 0 -9 -13 -10 -30z"/> <path d="M820 800 c0 -5 5 -10 10 -10 6 0 9 -4 8 -9 -2 -5 0 -9 5 -10 4 -1 6 1 5 4 -2 2 6 11 17 19 19 15 19 15 -12 16 -18 0 -33 -4 -33 -10z"/> <path d="M1524 803 c70 -18 236 -49 229 -42 -9 8 -208 50 -232 48 -12 -1 -11 -3 3 -6z"/> <path d="M1472 770 c0 -14 2 -19 5 -12 2 6 2 18 0 25 -3 6 -5 1 -5 -13z"/> <path d="M1340 740 c-13 -8 -12 -10 3 -10 9 0 17 5 17 10 0 12 -1 12 -20 0z"/> <path d="M1255 680 c-10 -11 -16 -22 -13 -25 3 -3 13 6 22 20 20 30 16 32 -9 5z"/> <path d="M1276 662 c-16 -20 -26 -34 -21 -30 4 4 17 3 27 -3 15 -8 23 -8 32 2 8 9 8 10 -1 5 -16 -9 -16 -1 -2 26 20 38 -6 38 -35 0z"/> <path d="M727 701 c-3 -14 -1 -18 9 -14 8 3 14 11 14 19 0 21 -17 17 -23 -5z"/> <path d="M944 692 c14 -27 46 -61 46 -49 0 3 -9 22 -21 41 -25 42 -46 49 -25 8z"/> <path d="M1146 539 c-8 -42 0 -50 9 -9 4 17 5 34 2 36 -2 3 -7 -10 -11 -27z"/> <path d="M828 573 c7 -3 16 -2 19 1 4 3 -2 6 -13 5 -11 0 -14 -3 -6 -6z"/> <path d="M900 580 c0 -5 5 -10 11 -10 5 0 7 5 4 10 -3 6 -8 10 -11 10 -2 0 -4 -4 -4 -10z"/> <path d="M924 547 c3 -10 6 -23 6 -28 0 -5 5 -9 10 -9 14 0 12 13 -6 36 -14 17 -15 17 -10 1z"/> <path d="M897 530 c3 -11 9 -20 13 -20 5 0 6 9 3 20 -3 11 -9 20 -13 20 -5 0 -6 -9 -3 -20z"/> <path d="M1412 1910 c77 -27 212 -108 275 -164 59 -53 78 -61 34 -13 -29 30 -30 33 -13 46 16 13 16 13 -1 7 -10 -3 -30 -3 -44 0 -19 5 -22 9 -11 16 11 8 10 9 -1 6 -8 -2 -25 6 -39 19 -14 13 -31 23 -38 23 -8 0 -14 6 -14 13 0 7 -8 13 -17 14 -32 2 -113 33 -113 43 0 3 -17 7 -37 8 -36 2 -34 1 19 -18z"/> <path d="M1653 1903 c9 -2 23 -2 30 0 6 3 -1 5 -18 5 -16 0 -22 -2 -12 -5z"/> <path d="M1570 1876 c0 -2 7 -6 15 -10 8 -3 15 -1 15 4 0 6 -7 10 -15 10 -8 0 -15 -2 -15 -4z"/> <path d="M1728 1803 c7 -3 16 -2 19 1 4 3 -2 6 -13 5 -11 0 -14 -3 -6 -6z"/> <path d="M1911 1734 c0 -11 3 -14 6 -6 3 7 2 16 -1 19 -3 4 -6 -2 -5 -13z"/> <path d="M1924 1690 c0 -13 4 -16 10 -10 7 7 7 13 0 20 -6 6 -10 3 -10 -10z"/> <path d="M1770 1665 c14 -16 28 -34 33 -40 4 -5 5 -1 1 9 -5 13 -4 17 4 12 7 -4 12 -2 12 4 0 7 -6 10 -12 7 -7 -2 -24 5 -38 17 l-25 21 25 -30z"/> <path d="M387 1439 c-9 -17 -17 -39 -17 -49 0 -10 -5 -22 -10 -25 -6 -4 -8 -15 -5 -25 3 -10 0 -24 -7 -31 -8 -9 -14 -45 -15 -94 -1 -53 1 -73 7 -60 5 11 9 37 9 57 1 44 36 201 52 230 17 32 5 29 -14 -3z"/> <path d="M211 1354 c0 -11 3 -14 6 -6 3 7 2 16 -1 19 -3 4 -6 -2 -5 -13z"/> <path d="M193 1293 c-10 -51 -10 -226 1 -288 7 -45 9 -48 17 -26 6 16 6 28 -1 35 -5 5 -10 43 -10 83 0 56 3 73 14 73 9 0 12 7 9 20 -3 10 -9 18 -13 17 -4 -1 -8 3 -8 8 0 6 4 9 9 8 12 -4 11 14 -1 22 -6 4 -8 23 -5 46 8 50 -2 51 -12 2z"/> <path d="M303 1268 c-27 -13 -38 -38 -17 -38 8 0 12 5 9 11 -4 6 2 13 14 16 12 3 21 9 21 14 0 10 1 11 -27 -3z"/> <path d="M328 1124 c-3 -5 -1 -20 4 -34 6 -14 12 -20 14 -14 6 15 -11 60 -18 48z"/> <path d="M2092 965 c0 -16 2 -22 5 -12 2 9 2 23 0 30 -3 6 -5 -1 -5 -18z"/> <path d="M2076 895 c4 -8 -7 -27 -25 -46 -35 -34 -38 -41 -16 -33 19 8 19 3 -2 -41 -12 -25 -19 -32 -26 -23 -5 9 -7 4 -3 -13 4 -18 -3 -40 -24 -73 -17 -26 -30 -49 -30 -51 0 -3 -7 -13 -15 -22 -8 -10 -28 -37 -45 -61 -18 -25 -35 -40 -42 -36 -7 5 -8 3 -4 -5 25 -40 188 207 230 348 19 64 19 71 6 71 -5 0 -7 -7 -4 -15z"/> <path d="M1911 869 c-6 -18 -9 -34 -7 -36 2 -2 9 10 15 28 6 18 9 34 7 36 -2 2 -9 -10 -15 -28z"/> <path d="M1848 742 c-46 -75 -155 -210 -171 -211 -4 -1 -20 -12 -35 -26 -42 -39 -219 -123 -304 -145 -85 -21 -257 -27 -320 -11 -21 5 -36 5 -33 1 3 -5 19 -11 35 -15 37 -8 38 -17 5 -35 -14 -7 -25 -18 -25 -23 0 -5 7 -4 15 3 8 7 21 10 29 7 10 -4 13 -1 10 8 -7 18 43 28 141 27 53 -1 91 4 113 14 25 12 37 13 47 4 9 -7 15 -8 20 0 3 5 13 10 21 10 8 0 23 9 35 21 11 11 27 18 35 15 8 -3 14 -1 14 4 0 6 6 10 13 10 7 0 30 12 50 26 21 14 41 23 44 20 3 -3 11 0 17 7 7 7 30 26 50 42 21 17 59 52 85 78 25 27 63 66 84 88 21 21 45 39 53 39 8 0 12 5 9 10 -5 8 -11 8 -20 0 -11 -9 -12 -7 -8 9 3 13 11 18 21 14 12 -3 13 -2 4 4 -10 7 -9 16 4 42 30 60 9 40 -38 -37z"/> <path d="M1988 813 c-10 -2 -18 -11 -18 -19 0 -21 18 -17 30 6 6 11 9 19 8 19 -2 -1 -11 -3 -20 -6z"/> <path d="M1920 750 c0 -5 5 -10 10 -10 6 0 10 5 10 10 0 6 -4 10 -10 10 -5 0 -10 -4 -10 -10z"/> <path d="M1975 719 c-4 -6 -5 -12 -2 -15 2 -3 7 2 10 11 7 17 1 20 -8 4z"/> <path d="M1750 560 c0 -5 5 -10 11 -10 5 0 7 5 4 10 -3 6 -8 10 -11 10 -2 0 -4 -4 -4 -10z"/> <path d="M1790 459 c0 -5 5 -7 10 -4 6 3 10 8 10 11 0 2 -4 4 -10 4 -5 0 -10 -5 -10 -11z"/> <path d="M1823 455 c-7 -7 -22 -20 -35 -29 -12 -9 -20 -17 -17 -20 2 -2 19 9 38 25 19 16 33 30 30 33 -2 2 -9 -2 -16 -9z"/> <path d="M748 423 c7 -3 16 -2 19 1 4 3 -2 6 -13 5 -11 0 -14 -3 -6 -6z"/> <path d="M885 370 c3 -5 11 -10 16 -10 6 0 7 5 4 10 -3 6 -11 10 -16 10 -6 0 -7 -4 -4 -10z"/> <path d="M928 358 c5 -5 16 -8 23 -6 8 3 3 7 -10 11 -17 4 -21 3 -13 -5z"/> <path d="M1688 353 c7 -3 16 -2 19 1 4 3 -2 6 -13 5 -11 0 -14 -3 -6 -6z"/> <path d="M1320 320 c0 -5 7 -7 15 -4 8 4 15 8 15 10 0 2 -7 4 -15 4 -8 0 -15 -4 -15 -10z"/> <path d="M736 303 c4 -18 1 -21 -18 -16 -47 10 130 -67 188 -82 72 -18 250 -34 267 -23 7 4 -16 8 -50 8 -34 0 -65 4 -68 10 -3 5 -20 9 -38 8 -18 -1 -40 2 -50 7 -17 7 -16 10 10 26 37 25 17 24 -29 -1 -31 -16 -42 -18 -65 -8 -15 6 -39 13 -53 15 -14 2 -37 9 -53 15 -22 8 -25 13 -16 24 9 11 8 14 -4 14 -8 0 -18 6 -21 13 -3 6 -3 2 0 -10z"/> <path d="M1465 250 c-3 -5 -1 -10 4 -10 6 0 11 5 11 10 0 6 -2 10 -4 10 -3 0 -8 -4 -11 -10z"/> <path d="M1418 223 c7 -3 16 -2 19 1 4 3 -2 6 -13 5 -11 0 -14 -3 -6 -6z"/> <path d="M1305 200 c-3 -5 -2 -10 4 -10 5 0 13 5 16 10 3 6 2 10 -4 10 -5 0 -13 -4 -16 -10z"/> <path d="M1240 190 c-12 -8 -11 -10 8 -10 12 0 22 5 22 10 0 13 -11 13 -30 0z"/> </g> </svg> 